/* XPM */
static char * hide_active_xpm[] = {
"11 17 3 1",
" 	c None",
".	c #000000",
"+	c #ED900B",
"...........",
"...........",
"...........",
"+++++++++++",
"+++++++++++",
"+++++++++++",
"+++++++++++",
"+++++++++++",
"+++++++++++",
"+++++++++++",
"+++++++++++",
"+++++++++++",
"+++++++++++",
"+++++++++++",
"...........",
"...........",
"..........."};
