/* XPM */
static char * hide_pressed_xpm[] = {
"11 17 3 1",
" 	c None",
".	c #000000",
"+	c #FF9B00",
"...........",
"...........",
"...........",
"+++++++++++",
"+++++++++++",
"+++++++++++",
"+++++++++++",
"+++++++++++",
"+++++++++++",
"+++++++++++",
"+++++++++++",
"+++++++++++",
"+++++++++++",
"+++++++++++",
"...........",
"...........",
"..........."};
