/* XPM */
static char * hide_inactive_xpm[] = {
"11 17 3 1",
" 	c None",
".	c #000000",
"+	c #7C7C7C",
"...........",
"...........",
"...........",
"+++++++++++",
"+++++++++++",
"+++++++++++",
"+++++++++++",
"+++++++++++",
"+++++++++++",
"+++++++++++",
"+++++++++++",
"+++++++++++",
"+++++++++++",
"+++++++++++",
"...........",
"...........",
"..........."};
