/* XPM */
static char * maximize_inactive_xpm[] = {
"11 17 3 1",
" 	c None",
".	c #000000",
"+	c #898989",
"...........",
"...........",
"...........",
"+++++++++++",
"+++++++++++",
"+++++++++++",
"+++++++++++",
"+++++++++++",
"+++++++++++",
"+++++++++++",
"+++++++++++",
"+++++++++++",
"+++++++++++",
"+++++++++++",
"...........",
"...........",
"..........."};
